<?xml version="1.0" standalone="no"?>
<!DOCTYPE svg PUBLIC "-//W3C//DTD SVG 20010904//EN"
 "http://www.w3.org/TR/2001/REC-SVG-20010904/DTD/svg10.dtd">
<svg version="1.0" xmlns="http://www.w3.org/2000/svg"
 width="512.000000pt" height="512.000000pt" viewBox="0 0 512.000000 512.000000"
 preserveAspectRatio="xMidYMid meet">
<metadata>
Created by potrace 1.14, written by Peter Selinger 2001-2017
</metadata>
<g transform="translate(0.000000,512.000000) scale(0.100000,-0.100000)"
fill="#000000" stroke="none">
<path d="M1514 3931 c-151 -24 -287 -145 -345 -307 -32 -86 -32 -235 -1 -324
28 -83 56 -128 115 -188 136 -141 361 -173 555 -79 78 38 176 139 215 220 123
261 -16 578 -292 663 -58 18 -180 25 -247 15z m204 -518 l-193 -193 -95 95
-95 95 47 47 48 47 43 -42 c23 -23 47 -42 53 -42 5 0 72 63 149 140 l140 140
47 -47 48 -48 -192 -192z"/>
<path d="M2870 3845 l0 -95 285 0 285 0 0 95 0 95 -285 0 -285 0 0 -95z"/>
<path d="M2680 3505 l0 -45 430 0 430 0 0 45 0 45 -430 0 -430 0 0 -45z"/>
<path d="M3640 3505 l0 -45 45 0 45 0 0 45 0 45 -45 0 -45 0 0 -45z"/>
<path d="M2580 3315 l0 -45 575 0 575 0 0 45 0 45 -575 0 -575 0 0 -45z"/>
<path d="M2580 3125 l0 -45 575 0 575 0 0 45 0 45 -575 0 -575 0 0 -45z"/>
<path d="M2580 2930 l0 -50 575 0 575 0 0 50 0 50 -575 0 -575 0 0 -50z"/>
<path d="M2580 2735 l0 -45 575 0 575 0 0 45 0 45 -575 0 -575 0 0 -45z"/>
<path d="M1025 2564 c-27 -29 -33 -80 -15 -115 21 -39 62 -49 199 -49 121 0
132 -2 156 -23 25 -21 35 -60 126 -457 54 -239 104 -447 110 -461 14 -34 67
-85 102 -98 16 -6 94 -11 175 -11 l147 0 -39 -23 c-96 -55 -99 -182 -6 -245
28 -19 44 -23 82 -19 26 2 59 12 73 21 37 24 69 99 61 142 -8 41 -50 92 -91
110 -26 11 22 13 330 13 l360 0 -38 -20 c-56 -29 -79 -72 -74 -137 7 -103 108
-161 203 -116 52 25 77 74 72 140 -5 60 -30 96 -83 119 -28 12 -22 13 71 14
86 1 105 4 127 21 32 25 43 72 27 111 -25 60 -11 59 -679 59 l-611 0 -29 28
c-28 26 -35 50 -127 457 -53 237 -105 447 -115 467 -10 20 -35 49 -56 65 l-36
28 -199 3 -198 3 -25 -27z"/>
<path d="M1738 2439 c-10 -5 -18 -20 -18 -32 1 -12 34 -175 74 -361 56 -260
78 -342 92 -353 14 -10 123 -13 554 -13 507 0 538 1 553 18 11 12 44 145 92
367 71 327 74 349 59 367 -16 17 -48 18 -703 18 -447 -1 -692 -4 -703 -11z
m327 -111 c10 -62 25 -173 25 -196 0 -22 -1 -23 -107 -20 l-108 3 -26 115
c-14 63 -24 118 -22 123 2 4 55 7 118 7 l114 0 6 -32z m325 -93 l0 -125 -100
0 -99 0 -6 33 c-10 61 -25 172 -25 195 0 22 2 22 115 22 l115 0 0 -125z m323
118 c3 -5 -3 -60 -12 -123 l-16 -115 -100 0 -100 0 -3 109 c-1 61 0 116 2 123
4 10 34 13 115 13 60 0 112 -3 114 -7z m337 2 c0 -3 -11 -57 -25 -121 -14 -64
-25 -117 -25 -120 0 -2 -49 -4 -110 -4 -60 0 -110 4 -110 8 0 16 31 217 35
230 3 9 36 12 120 12 63 0 115 -2 115 -5z m-926 -439 c9 -58 16 -112 16 -120
0 -13 -16 -16 -98 -16 l-97 0 -23 108 c-12 59 -22 113 -22 120 0 9 27 12 104
12 l103 0 17 -104z m266 -16 l0 -121 -77 3 -77 3 -13 90 c-7 50 -15 102 -17
118 l-5 27 94 0 95 0 0 -120z m280 112 c0 -5 -7 -53 -15 -108 -8 -54 -15 -105
-15 -111 0 -9 -23 -13 -80 -13 l-80 0 0 120 0 120 95 0 c52 0 95 -4 95 -8z
m306 -9 c-6 -21 -46 -210 -46 -218 0 -3 -45 -5 -100 -5 -99 0 -100 0 -96 23 3
12 10 63 17 112 6 50 13 93 16 98 2 4 51 7 109 7 96 0 105 -2 100 -17z"/>
</g>
</svg>
